<svg width="30" height="23" viewBox="0 0 30 23" fill="none" xmlns="http://www.w3.org/2000/svg">
<path d="M27.3617 2.13167C29.0783 3.955 30 6 30 9.315C30 15.1483 25.905 20.3767 19.95 22.9617L18.4617 20.665C24.02 17.6583 25.1067 13.7567 25.54 11.2967C24.645 11.76 23.4733 11.9217 22.325 11.815C19.3183 11.5367 16.9483 9.06834 16.9483 6C16.9483 4.45291 17.5629 2.96917 18.6569 1.87521C19.7508 0.78125 21.2346 0.16667 22.7817 0.16667C24.57 0.16667 26.28 0.983338 27.3617 2.13167V2.13167ZM10.695 2.13167C12.4117 3.955 13.3333 6 13.3333 9.315C13.3333 15.1483 9.23833 20.3767 3.28333 22.9617L1.795 20.665C7.35334 17.6583 8.44 13.7567 8.87334 11.2967C7.97834 11.76 6.80667 11.9217 5.65834 11.815C2.65167 11.5367 0.281672 9.06833 0.281672 6C0.281672 4.4529 0.896253 2.96917 1.99021 1.87521C3.08418 0.781248 4.56791 0.166668 6.11501 0.166668C7.90334 0.166668 9.61334 0.983337 10.695 2.13167V2.13167Z" fill="#18191A"/>
</svg>
