<svg width="40" height="40" viewBox="0 0 40 40" fill="none" xmlns="http://www.w3.org/2000/svg">
<rect width="40" height="40" rx="5" fill="url(#paint0_linear_1_286)"/>
<g clip-path="url(#clip0_1_286)">
<path d="M14 17H27.938L28.438 15H16V13H29.72C29.872 13 30.022 13.0347 30.1586 13.1013C30.2952 13.168 30.4148 13.265 30.5083 13.3848C30.6019 13.5046 30.6668 13.6442 30.6983 13.7929C30.7298 13.9416 30.7269 14.0956 30.69 14.243L28.19 24.243C28.1358 24.4592 28.011 24.6512 27.8352 24.7883C27.6595 24.9255 27.4429 25 27.22 25H13C12.7348 25 12.4804 24.8946 12.2929 24.7071C12.1054 24.5196 12 24.2652 12 24V12H10V10H13C13.2652 10 13.5196 10.1054 13.7071 10.2929C13.8946 10.4804 14 10.7348 14 11V17ZM14 31C13.4696 31 12.9609 30.7893 12.5858 30.4142C12.2107 30.0391 12 29.5304 12 29C12 28.4696 12.2107 27.9609 12.5858 27.5858C12.9609 27.2107 13.4696 27 14 27C14.5304 27 15.0391 27.2107 15.4142 27.5858C15.7893 27.9609 16 28.4696 16 29C16 29.5304 15.7893 30.0391 15.4142 30.4142C15.0391 30.7893 14.5304 31 14 31ZM26 31C25.4696 31 24.9609 30.7893 24.5858 30.4142C24.2107 30.0391 24 29.5304 24 29C24 28.4696 24.2107 27.9609 24.5858 27.5858C24.9609 27.2107 25.4696 27 26 27C26.5304 27 27.0391 27.2107 27.4142 27.5858C27.7893 27.9609 28 28.4696 28 29C28 29.5304 27.7893 30.0391 27.4142 30.4142C27.0391 30.7893 26.5304 31 26 31Z" fill="white"/>
</g>
<defs>
<linearGradient id="paint0_linear_1_286" x1="47.0748" y1="-7.54386" x2="-17.9051" y2="32.0236" gradientUnits="userSpaceOnUse">
<stop stop-color="#0283E9"/>
<stop offset="1" stop-color="#FC01CA"/>
</linearGradient>
<clipPath id="clip0_1_286">
<rect width="24" height="24" fill="white" transform="translate(8 8)"/>
</clipPath>
</defs>
</svg>
