<svg width="24" height="27" viewBox="0 0 24 27" fill="none" xmlns="http://www.w3.org/2000/svg">
<path d="M22.6667 26.7707H1.33333C0.979711 26.7707 0.640573 26.6302 0.390524 26.3801C0.140476 26.1301 0 25.791 0 25.4373V1.43734C0 1.08372 0.140476 0.744577 0.390524 0.494528C0.640573 0.24448 0.979711 0.104004 1.33333 0.104004H22.6667C23.0203 0.104004 23.3594 0.24448 23.6095 0.494528C23.8595 0.744577 24 1.08372 24 1.43734V25.4373C24 25.791 23.8595 26.1301 23.6095 26.3801C23.3594 26.6302 23.0203 26.7707 22.6667 26.7707ZM8 5.43734H5.33333V8.104C5.33333 9.87211 6.03571 11.5678 7.28595 12.818C8.5362 14.0683 10.2319 14.7707 12 14.7707C13.7681 14.7707 15.4638 14.0683 16.714 12.818C17.9643 11.5678 18.6667 9.87211 18.6667 8.104V5.43734H16V8.104C16 9.16487 15.5786 10.1823 14.8284 10.9324C14.0783 11.6826 13.0609 12.104 12 12.104C10.9391 12.104 9.92172 11.6826 9.17157 10.9324C8.42143 10.1823 8 9.16487 8 8.104V5.43734Z" fill="white"/>
</svg>
